<svg width="301" height="317" viewBox="0 0 301 317" fill="none" xmlns="http://www.w3.org/2000/svg">
<g clip-path="url(#clip0_0_5395)">
<path fill-rule="evenodd" clip-rule="evenodd" d="M332.994 254H276.005L273 165H336L332.994 254Z" fill="#FBA808"/>
<path fill-rule="evenodd" clip-rule="evenodd" d="M340 169L337.452 162.693H337.686V157H272.314V162.693H272.549L270 169H340Z" fill="#C65734"/>
<path fill-rule="evenodd" clip-rule="evenodd" d="M272 163H337V157H272V163Z" fill="#EF9F50"/>
<path fill-rule="evenodd" clip-rule="evenodd" d="M311.348 92.9164H309.823C309.823 83.5727 302.161 76 292.711 76C284.7 76 277.996 81.4473 276.131 88.7943C273.981 86.6931 271.028 85.3932 267.766 85.3932C262.709 85.3932 258.399 88.5181 256.677 92.9164H249.652C244.322 92.9164 240 97.1881 240 102.458C240 107.728 244.322 112 249.652 112H311.348C316.678 112 321 107.728 321 102.458C321 97.1881 316.678 92.9164 311.348 92.9164Z" fill="#00AD8F"/>
<path fill-rule="evenodd" clip-rule="evenodd" d="M189.916 80.58V80.1601H92.0843C88.9763 80.1601 86.1661 78.8923 84.1281 76.8395C82.0913 74.7856 80.8334 71.9545 80.8334 68.8209V12.1791C80.8334 9.04554 82.0913 6.21328 84.1281 4.16048C86.1661 2.10768 88.9763 0.839935 92.0843 0.839935H189.916C193.024 0.839935 195.833 2.10768 197.871 4.16048C199.908 6.21328 201.167 9.04554 201.167 12.1791V68.8209C201.167 71.9545 199.908 74.7856 197.871 76.8395C195.833 78.8923 193.024 80.1601 189.916 80.1601V81C196.59 81 201.999 75.5483 202 68.8209V12.1791C201.999 5.45174 196.59 0 189.916 0H92.0843C85.4104 0 80 5.45174 80 12.1791V68.8209C80 75.5483 85.4104 81 92.0843 81H189.916V80.58Z" fill="#00AD8F"/>
<path fill-rule="evenodd" clip-rule="evenodd" d="M0.420087 259.58V260H279L278.999 259.579C278.735 182.447 216.387 120 139.501 120C62.6141 120 0.266315 182.447 0.00222858 259.579L0 260H0.420087V259.58L0.837945 259.583C1.0998 182.913 63.0754 120.839 139.501 120.839C215.926 120.839 277.901 182.913 278.163 259.583L278.581 259.58V259.161H0.420087V259.58L0.837945 259.583L0.420087 259.58Z" fill="#00AD8F"/>
<path fill-rule="evenodd" clip-rule="evenodd" d="M162.42 35.0365H161.064C161.064 26.7321 154.254 20 145.853 20C138.734 20 132.773 24.8426 131.117 31.3732C129.206 29.5057 126.581 28.3496 123.681 28.3496C119.186 28.3496 115.354 31.1277 113.824 35.0365H107.58C102.842 35.0365 99 38.8342 99 43.5183C99 48.2034 102.842 52 107.58 52H162.42C167.158 52 171 48.2034 171 43.5183C171 38.8342 167.158 35.0365 162.42 35.0365Z" fill="#00AD8F"/>
<path fill-rule="evenodd" clip-rule="evenodd" d="M266.532 260H183.468C171.059 260 161 249.871 161 237.374V41.6256C161 29.1293 171.059 19 183.468 19H266.532C278.941 19 289 29.1293 289 41.6256V237.374C289 249.871 278.941 260 266.532 260Z" fill="#022B57"/>
<path fill-rule="evenodd" clip-rule="evenodd" d="M265.893 26H250.299C248.708 26 247.418 27.2876 247.418 28.8765C247.418 32.1737 244.741 34.8472 241.437 34.8472H206.562C203.259 34.8472 200.582 32.1737 200.582 28.8765C200.582 27.2876 199.291 26 197.701 26H182.107C172.658 26 165 33.6466 165 43.0785V237.921C165 247.355 172.658 255 182.107 255H265.893C275.341 255 283 247.355 283 237.921V43.0785C283 33.6466 275.341 26 265.893 26Z" fill="#00AD8F"/>
<path fill-rule="evenodd" clip-rule="evenodd" d="M240.54 175.153C240.836 175.952 240.213 176.792 239.362 176.72C232.869 176.164 216.584 173.644 215.862 162.349C215.098 150.428 214.754 137.766 214.654 133.498C214.637 132.776 215.028 132.114 215.665 131.773C217.558 130.759 219.178 129.885 220.367 129.242C221.291 128.742 222.441 129.068 222.962 129.979C226.085 135.441 234.35 150.752 237.366 164.696C238.069 167.947 239.187 171.509 240.54 175.153ZM207.601 134.793C206.686 135.274 205.55 134.953 205.026 134.063L200.462 126.293L192.046 116.876C191.492 116.255 191.577 115.297 192.232 114.783L203.818 105.7C204.977 104.791 206.597 104.745 207.807 105.586L225.993 118.229C227.162 119.043 227.376 120.683 226.454 121.767L221.86 127.164C221.025 127.618 214.696 131.055 207.601 134.793ZM206.867 101.047L210.434 85.1195C210.572 84.5068 211.385 84.3686 211.72 84.9012L221.202 100.071C222.524 102.18 224.409 103.868 226.653 104.954L235.07 109.027C235.869 109.414 236.087 110.447 235.514 111.123L230.059 117.531C229.402 118.303 228.264 118.449 227.432 117.871L208.221 104.515C207.106 103.739 206.571 102.369 206.867 101.047ZM252.95 153.768C247.935 154.651 242.023 156.92 238.792 158.263C237.851 158.656 236.792 158.151 236.483 157.18C232.616 145.085 226.221 133.407 223.735 129.081C223.228 128.199 223.333 127.1 223.994 126.326L235.969 112.3C236.978 111.117 238.662 110.765 240.065 111.443L257.736 119.993L283 130.29V127.882L258.647 117.959L227.629 102.95C225.763 102.047 224.197 100.643 223.097 98.8909L220.456 94.6774C219.76 93.5677 219.8 92.1506 220.557 91.0822L250.165 49.2846L248.34 48L220.012 87.9906C219.067 89.3252 217.064 89.2684 216.196 87.8847L208.262 75.2286L200.551 49.9196L198.412 50.5669L206.166 76.0173L208.164 79.2148C209.319 81.062 209.699 83.2868 209.223 85.4114L205.508 101.999C205.34 102.751 204.915 103.422 204.308 103.898L191.348 114.058C190.747 114.529 189.883 114.454 189.373 113.884L186.716 110.911C182.99 106.741 178.372 103.458 173.204 101.303L165 97.8837V99.0925L172.771 102.331C177.759 104.41 182.294 107.635 185.887 111.657L199.564 126.945L203.948 134.428C204.507 135.379 204.152 136.602 203.172 137.111C195.933 140.875 188.901 144.385 186.868 144.925C183.316 145.87 170.735 147.559 165 148.302V149.427C170.692 148.692 183.462 146.984 187.157 146.003C189.984 145.251 201.633 139.229 210.799 134.367C212.05 133.704 213.56 134.577 213.598 135.988C213.749 141.592 214.096 152.273 214.746 162.421C215.538 174.774 232.617 177.327 239.336 177.853C240.76 177.965 241.983 178.872 242.53 180.188C243.236 181.88 243.973 183.568 244.727 185.23C245.209 186.292 244.8 187.54 243.771 188.094C237.295 191.586 218.226 201.42 205.672 203.194C193.26 204.947 172.747 215.54 165 219.729V220.997C172.239 217.06 193.292 206.067 205.828 204.298C217.89 202.592 235.784 193.607 243.177 189.675C244.752 188.839 246.704 189.484 247.487 191.083C252.281 200.88 256.853 208.576 256.932 208.706L278.32 249C278.594 248.713 278.867 248.425 279.118 248.119L257.906 208.161C257.749 207.899 242.192 181.716 238.458 164.461C238.398 164.187 238.337 163.912 238.273 163.636C237.941 162.187 238.701 160.713 240.083 160.148C243.308 158.827 248.793 156.763 253.339 155.962C257.04 155.318 270.879 158.419 283 161.492V159.186C271.345 156.235 257.126 153.026 252.95 153.768Z" fill="#0F6657"/>
<path fill-rule="evenodd" clip-rule="evenodd" d="M212 29.0006C212 30.1052 211.104 31 209.999 31C208.895 31 208 30.1052 208 29.0006C208 27.8959 208.895 27 209.999 27C211.104 27 212 27.8959 212 29.0006Z" fill="#FFFFFE"/>
<path fill-rule="evenodd" clip-rule="evenodd" d="M240.782 30H216.218C215.546 30 215 29.5522 215 29.0005C215 28.4478 215.546 28 216.218 28H240.782C241.456 28 242 28.4478 242 29.0005C242 29.5522 241.456 30 240.782 30Z" fill="#FFFFFE"/>
<path fill-rule="evenodd" clip-rule="evenodd" d="M265.893 26H250.299C248.708 26 247.418 27.3291 247.418 28.9692C247.418 32.3727 244.741 35.1323 241.437 35.1323H206.562C203.259 35.1323 200.582 32.3727 200.582 28.9692C200.582 27.3291 199.291 26 197.701 26H182.107C172.658 26 165 33.893 165 43.6287V55H283V43.6287C283 33.893 275.341 26 265.893 26Z" fill="#FFFFFE"/>
<path d="M215.857 40.1269H217.245L219.43 45.3303H219.469L221.633 40.1269H223.022V47H222.09V41.3501H222.07L219.75 47H219.129L216.809 41.3501H216.789V47H215.857V40.1269ZM224.594 42.9616C224.84 42.735 225.125 42.5668 225.448 42.4567C225.772 42.3403 226.096 42.282 226.419 42.282C226.756 42.282 227.044 42.3241 227.283 42.4082C227.529 42.4923 227.73 42.6056 227.885 42.748C228.04 42.8904 228.154 43.0554 228.225 43.2431C228.302 43.4243 228.341 43.6152 228.341 43.8158V46.1651C228.341 46.3269 228.345 46.4758 228.351 46.6117C228.357 46.7476 228.367 46.877 228.38 47H227.603C227.584 46.767 227.574 46.534 227.574 46.301H227.555C227.361 46.5987 227.131 46.8091 226.866 46.932C226.6 47.055 226.293 47.1165 225.943 47.1165C225.73 47.1165 225.526 47.0874 225.332 47.0291C225.138 46.9709 224.966 46.8835 224.817 46.767C224.675 46.6505 224.562 46.5081 224.478 46.3399C224.393 46.1651 224.351 45.9645 224.351 45.738C224.351 45.4403 224.416 45.1911 224.546 44.9905C224.681 44.7899 224.863 44.6281 225.089 44.5051C225.322 44.3757 225.591 44.2851 225.895 44.2333C226.206 44.175 226.536 44.1459 226.885 44.1459H227.526V43.9518C227.526 43.8353 227.503 43.7188 227.458 43.6023C227.413 43.4858 227.345 43.3822 227.254 43.2916C227.163 43.1945 227.05 43.1201 226.914 43.0683C226.778 43.0101 226.617 42.981 226.429 42.981C226.261 42.981 226.112 42.9972 225.982 43.0295C225.859 43.0619 225.746 43.1039 225.642 43.1557C225.539 43.201 225.445 43.256 225.361 43.3207C225.277 43.3855 225.196 43.4469 225.118 43.5052L224.594 42.9616ZM227.06 44.7866C226.853 44.7866 226.639 44.7996 226.419 44.8255C226.206 44.8449 226.008 44.8869 225.827 44.9517C225.652 45.0164 225.507 45.107 225.39 45.2235C225.28 45.34 225.225 45.4888 225.225 45.67C225.225 45.9354 225.312 46.1263 225.487 46.2428C225.668 46.3593 225.911 46.4175 226.215 46.4175C226.455 46.4175 226.659 46.3787 226.827 46.301C226.995 46.2169 227.131 46.1101 227.235 45.9807C227.338 45.8512 227.413 45.7089 227.458 45.5535C227.503 45.3917 227.526 45.2332 227.526 45.0779V44.7866H227.06ZM229.684 42.3985H230.557V43.0586H230.577C230.745 42.8127 230.975 42.6218 231.266 42.4859C231.564 42.35 231.868 42.282 232.179 42.282C232.535 42.282 232.855 42.3435 233.14 42.4665C233.431 42.5894 233.677 42.7609 233.877 42.981C234.085 43.201 234.243 43.4599 234.353 43.7576C234.463 44.0488 234.518 44.3627 234.518 44.6993C234.518 45.0423 234.463 45.3626 234.353 45.6603C234.243 45.9516 234.085 46.2072 233.877 46.4272C233.677 46.6408 233.431 46.8091 233.14 46.932C232.855 47.055 232.535 47.1165 232.179 47.1165C231.849 47.1165 231.538 47.0485 231.247 46.9126C230.955 46.7702 230.732 46.5793 230.577 46.3399H230.557V49.7376H229.684V42.3985ZM232.072 43.0975C231.839 43.0975 231.628 43.1395 231.441 43.2237C231.253 43.3013 231.095 43.4113 230.965 43.5537C230.836 43.6896 230.735 43.8579 230.664 44.0585C230.593 44.2527 230.557 44.4663 230.557 44.6993C230.557 44.9322 230.593 45.149 230.664 45.3497C230.735 45.5438 230.836 45.7121 230.965 45.8545C231.095 45.9904 231.253 46.1004 231.441 46.1845C231.628 46.2622 231.839 46.301 232.072 46.301C232.305 46.301 232.515 46.2622 232.703 46.1845C232.89 46.1004 233.049 45.9904 233.178 45.8545C233.308 45.7121 233.408 45.5438 233.479 45.3497C233.551 45.149 233.586 44.9322 233.586 44.6993C233.586 44.4663 233.551 44.2527 233.479 44.0585C233.408 43.8579 233.308 43.6896 233.178 43.5537C233.049 43.4113 232.89 43.3013 232.703 43.2237C232.515 43.1395 232.305 43.0975 232.072 43.0975Z" fill="#EF8E91"/>
<path fill-rule="evenodd" clip-rule="evenodd" d="M256 197.501C256 201.09 253.09 204 249.501 204C245.911 204 243 201.09 243 197.501C243 193.91 245.911 191 249.501 191C253.09 191 256 193.91 256 197.501Z" fill="#0F6657"/>
<path fill-rule="evenodd" clip-rule="evenodd" d="M249.5 180.352C247.848 180.352 246.508 179.028 246.508 177.394C246.508 175.76 247.848 174.436 249.5 174.436C251.153 174.436 252.493 175.76 252.493 177.394C252.493 179.028 251.153 180.352 249.5 180.352ZM247.594 168.183C244.01 168.873 241.207 171.447 240.313 174.948C239.512 178.079 240.303 181.042 242.053 183.22C243.724 185.304 245.189 187.542 246.132 190.034L249.022 197.671C249.187 198.11 249.812 198.11 249.979 197.671L252.865 190.042C253.808 187.547 255.275 185.305 256.95 183.217C258.232 181.618 259 179.596 259 177.394C259 171.589 253.676 167.015 247.594 168.183Z" fill="#FFFFFE"/>
<path fill-rule="evenodd" clip-rule="evenodd" d="M245 108.499C245 112.089 242.089 115 238.5 115C234.91 115 232 112.089 232 108.499C232 104.91 234.91 102 238.5 102C242.089 102 245 104.91 245 108.499Z" fill="#0F6657"/>
<path fill-rule="evenodd" clip-rule="evenodd" d="M239.5 92.3526C237.848 92.3526 236.509 91.0285 236.509 89.394C236.509 87.7605 237.848 86.4353 239.5 86.4353C241.153 86.4353 242.492 87.7605 242.492 89.394C242.492 91.0285 241.153 92.3526 239.5 92.3526ZM237.593 80.1835C234.01 80.8729 231.209 83.4469 230.313 86.9467C229.512 90.0788 230.305 93.0409 232.052 95.22C233.725 97.3032 235.191 99.5427 236.133 102.035L239.021 109.672C239.187 110.109 239.814 110.109 239.979 109.672L242.864 102.043C243.808 99.5462 245.275 97.3043 246.95 95.2177C248.234 93.6174 249 91.5958 249 89.394C249 83.5896 243.676 79.0146 237.593 80.1835Z" fill="#FBA808"/>
<path fill-rule="evenodd" clip-rule="evenodd" d="M231.81 113.562L230.521 114.884C229.809 115.615 229.83 116.779 230.567 117.484C231.304 118.189 232.478 118.169 233.19 117.439L234.479 116.116C235.191 115.386 235.171 114.221 234.434 113.516C233.696 112.81 232.521 112.831 231.81 113.562Z" fill="#FFFFFE"/>
<path fill-rule="evenodd" clip-rule="evenodd" d="M231.247 115.523L229.154 117.837C228.54 118.517 228.558 119.599 229.195 120.256C229.831 120.912 230.844 120.892 231.459 120.213L233.551 117.899C234.165 117.219 234.148 116.136 233.511 115.48C232.875 114.824 231.861 114.843 231.247 115.523ZM229.154 117.837L227.062 120.151C226.448 120.831 226.465 121.914 227.103 122.57C227.739 123.227 228.752 123.207 229.366 122.528L231.459 120.213C232.073 119.533 232.055 118.451 231.418 117.794C230.782 117.138 229.769 117.158 229.154 117.837ZM227.062 120.151L224.971 122.466C224.356 123.146 224.374 124.229 225.01 124.885C225.647 125.54 226.661 125.522 227.275 124.842L229.366 122.528C229.981 121.848 229.963 120.765 229.327 120.109C228.691 119.453 227.676 119.472 227.062 120.151ZM224.971 122.466L222.879 124.781C222.264 125.461 222.282 126.543 222.919 127.2C223.555 127.855 224.569 127.836 225.183 127.156L227.275 124.842C227.89 124.163 227.872 123.08 227.235 122.424C226.599 121.767 225.585 121.786 224.971 122.466ZM222.879 124.781L220.926 126.941L222.078 128.129L221.317 126.624L221.141 126.726C220.363 127.176 220.072 128.213 220.493 129.043C220.914 129.875 221.885 130.185 222.663 129.736L222.84 129.634C222.984 129.551 223.116 129.444 223.23 129.317L225.183 127.156C225.797 126.477 225.78 125.394 225.144 124.738C224.506 124.082 223.493 124.101 222.879 124.781ZM221.141 126.726L218.491 128.255C217.713 128.705 217.422 129.742 217.843 130.574C218.264 131.404 219.235 131.714 220.013 131.265L222.663 129.736C223.442 129.286 223.731 128.249 223.31 127.417C222.89 126.586 221.918 126.277 221.141 126.726ZM218.491 128.255L215.841 129.785C215.063 130.234 214.772 131.272 215.193 132.103C215.614 132.933 216.585 133.243 217.363 132.794L220.013 131.265C220.792 130.816 221.081 129.778 220.66 128.947C220.241 128.116 219.268 127.806 218.491 128.255Z" fill="#FFFFFE"/>
<path fill-rule="evenodd" clip-rule="evenodd" d="M215.438 129.208L213.912 130.029C213.322 130.345 212.97 130.968 213.002 131.633L213.089 133.359C213.136 134.311 213.951 135.045 214.908 134.998C215.866 134.951 216.604 134.14 216.556 133.187L216.525 132.55L217.089 132.246C217.933 131.792 218.246 130.745 217.791 129.907C217.335 129.067 216.282 128.754 215.438 129.208Z" fill="#FFFFFE"/>
<path fill-rule="evenodd" clip-rule="evenodd" d="M213.002 132.769L213.174 136.197C213.221 137.126 214.021 137.843 214.96 137.795C215.899 137.749 216.623 136.959 216.577 136.03L216.404 132.602C216.358 131.673 215.558 130.956 214.618 131.002C213.679 131.048 212.956 131.84 213.002 132.769ZM213.174 136.197L213.346 139.624C213.393 140.554 214.192 141.269 215.132 141.223C216.071 141.177 216.796 140.387 216.748 139.457L216.577 136.03C216.53 135.1 215.73 134.384 214.791 134.43C213.851 134.476 213.127 135.267 213.174 136.197ZM213.346 139.624L213.519 143.052C213.565 143.982 214.365 144.698 215.304 144.651C216.244 144.605 216.967 143.815 216.921 142.885L216.748 139.457C216.702 138.528 215.902 137.812 214.963 137.858C214.023 137.904 213.3 138.695 213.346 139.624ZM213.519 143.052L213.691 146.48C213.738 147.409 214.537 148.126 215.476 148.08C216.417 148.033 217.14 147.242 217.093 146.313L216.921 142.885C216.874 141.956 216.075 141.239 215.136 141.286C214.196 141.332 213.472 142.123 213.519 143.052ZM213.691 146.48L213.863 149.908C213.909 150.837 214.71 151.554 215.649 151.506C216.588 151.46 217.313 150.67 217.266 149.741L217.093 146.313C217.047 145.384 216.247 144.667 215.307 144.713C214.368 144.76 213.644 145.551 213.691 146.48ZM213.863 149.908L214.035 153.335C214.082 154.265 214.881 154.981 215.822 154.935C216.761 154.888 217.484 154.098 217.437 153.169L217.266 149.741C217.218 148.811 216.419 148.095 215.48 148.141C214.541 148.187 213.816 148.978 213.863 149.908ZM214.035 153.335L214.208 156.763C214.255 157.693 215.054 158.409 215.993 158.363C216.933 158.317 217.657 157.526 217.61 156.596L217.437 153.169C217.391 152.239 216.592 151.523 215.652 151.569C214.712 151.615 213.989 152.406 214.035 153.335ZM214.208 156.763L214.38 160.191C214.427 161.12 215.227 161.837 216.166 161.791C217.106 161.745 217.829 160.953 217.783 160.024L217.61 156.596C217.564 155.667 216.764 154.95 215.824 154.997C214.885 155.043 214.161 155.834 214.208 156.763ZM214.38 160.191L214.552 163.619C214.599 164.548 215.398 165.265 216.338 165.218C217.277 165.172 218.002 164.381 217.955 163.452L217.783 160.024C217.736 159.095 216.937 158.378 215.996 158.424C215.057 158.472 214.333 159.262 214.38 160.191ZM214.552 163.619L214.725 167.046C214.771 167.976 215.571 168.692 216.511 168.646C217.45 168.6 218.173 167.809 218.127 166.88L217.955 163.452C217.908 162.522 217.108 161.806 216.169 161.852C215.229 161.898 214.506 162.689 214.552 163.619ZM214.725 167.046L214.897 170.474C214.944 171.404 215.743 172.12 216.682 172.074C217.623 172.028 218.346 171.237 218.299 170.307L218.127 166.88C218.08 165.95 217.281 165.234 216.342 165.281C215.401 165.327 214.678 166.117 214.725 167.046ZM214.897 170.474L215.069 173.902C215.115 174.831 215.916 175.548 216.855 175.502C217.794 175.456 218.518 174.664 218.472 173.735L218.299 170.307C218.253 169.378 217.453 168.661 216.513 168.709C215.574 168.755 214.85 169.545 214.897 170.474ZM215.069 173.902L215.241 177.33C215.288 178.259 216.087 178.976 217.028 178.929C217.967 178.883 218.691 178.092 218.643 177.163L218.472 173.735C218.425 172.806 217.625 172.089 216.686 172.136C215.747 172.183 215.022 172.973 215.069 173.902ZM215.241 177.33L215.414 180.757C215.461 181.687 216.26 182.403 217.199 182.357C218.139 182.311 218.863 181.52 218.816 180.591L218.643 177.163C218.597 176.233 217.797 175.518 216.858 175.564C215.918 175.61 215.195 176.4 215.241 177.33ZM215.414 180.757L215.587 184.185C215.633 185.115 216.433 185.831 217.372 185.785C218.312 185.739 219.035 184.948 218.989 184.018L218.816 180.591C218.769 179.661 217.97 178.946 217.03 178.992C216.091 179.038 215.367 179.828 215.414 180.757ZM215.587 184.185L215.679 186.03C215.709 186.626 215.772 187.215 215.867 187.792C216.017 188.71 216.892 189.334 217.821 189.185C218.749 189.035 219.38 188.171 219.229 187.252C219.154 186.798 219.104 186.334 219.081 185.862L218.989 184.018C218.942 183.089 218.143 182.373 217.202 182.42C216.263 182.466 215.539 183.257 215.587 184.185ZM215.867 187.792C216.078 189.08 216.447 190.315 216.951 191.475C217.323 192.33 218.325 192.724 219.19 192.357C220.054 191.988 220.452 190.998 220.081 190.143C219.685 189.233 219.395 188.265 219.229 187.252C219.078 186.333 218.204 185.71 217.275 185.859C216.346 186.007 215.716 186.873 215.867 187.792ZM216.951 191.475C217.469 192.663 218.129 193.774 218.908 194.785C219.478 195.525 220.547 195.668 221.295 195.104C222.043 194.54 222.187 193.483 221.617 192.743C221.004 191.948 220.486 191.075 220.081 190.143C219.709 189.288 218.707 188.894 217.843 189.261C216.979 189.63 216.58 190.62 216.951 191.475ZM218.908 194.785C219.695 195.806 220.603 196.727 221.612 197.529C222.344 198.112 223.417 197.997 224.006 197.271C224.595 196.545 224.479 195.485 223.745 194.902C222.952 194.272 222.236 193.546 221.617 192.743C221.047 192.003 219.979 191.86 219.23 192.424C218.482 192.988 218.338 194.045 218.908 194.785ZM221.612 197.529C222.617 198.328 223.721 199.009 224.901 199.549C225.755 199.94 226.768 199.572 227.163 198.729C227.558 197.884 227.187 196.882 226.333 196.491C225.405 196.067 224.537 195.531 223.745 194.902C223.012 194.319 221.94 194.435 221.35 195.16C220.761 195.885 220.878 196.946 221.612 197.529ZM224.901 199.549C226.065 200.082 227.303 200.48 228.593 200.724C229.517 200.898 230.409 200.298 230.585 199.384C230.761 198.469 230.154 197.588 229.23 197.414C228.219 197.223 227.247 196.91 226.333 196.491C225.48 196.101 224.467 196.468 224.072 197.312C223.677 198.156 224.048 199.158 224.901 199.549ZM228.593 200.724C229.559 200.906 230.555 201 231.568 201C231.863 201 232.161 200.992 232.458 200.976C233.397 200.925 234.117 200.13 234.065 199.201C234.013 198.272 233.21 197.561 232.27 197.611C232.035 197.625 231.801 197.63 231.568 197.63C230.77 197.63 229.988 197.556 229.23 197.414C228.307 197.239 227.414 197.839 227.238 198.752C227.062 199.667 227.669 200.55 228.593 200.724ZM232.458 200.976C232.569 200.97 232.682 200.963 232.794 200.954L235.953 200.716C236.891 200.645 237.594 199.835 237.523 198.909C237.451 197.98 236.632 197.286 235.694 197.356L232.535 197.594L232.271 197.611C231.331 197.663 230.612 198.458 230.664 199.387C230.715 200.316 231.519 201.027 232.458 200.976ZM235.953 200.716L239.413 200.455C240.351 200.384 241.053 199.575 240.981 198.647C240.91 197.719 240.092 197.025 239.154 197.096L235.694 197.356C234.756 197.427 234.054 198.237 234.125 199.165C234.197 200.092 235.015 200.787 235.953 200.716ZM239.413 200.455L239.426 200.454C240.364 200.383 241.067 199.574 240.995 198.646C240.923 197.718 240.105 197.024 239.167 197.095L239.154 197.096C238.216 197.166 237.513 197.975 237.585 198.903C237.657 199.831 238.475 200.526 239.413 200.455Z" fill="#FFFFFE"/>
<path fill-rule="evenodd" clip-rule="evenodd" d="M239.795 199.994L241.458 199.848C242.377 199.767 243.065 198.841 242.995 197.78C242.925 196.72 242.123 195.925 241.205 196.006L239.542 196.153C238.623 196.234 237.935 197.16 238.005 198.221C238.075 199.282 238.877 200.075 239.795 199.994Z" fill="#FFFFFE"/>
<path fill-rule="evenodd" clip-rule="evenodd" d="M263 43.966H272V43.034H263V43.966Z" fill="#EF8E91"/>
<path fill-rule="evenodd" clip-rule="evenodd" d="M263 45.966H272V45.034H263V45.966Z" fill="#EF8E91"/>
<path fill-rule="evenodd" clip-rule="evenodd" d="M263 48.9665H272V48.0335H263V48.9665Z" fill="#EF8E91"/>
<path fill-rule="evenodd" clip-rule="evenodd" d="M298.768 278H241.232C233.371 278 227 271.909 227 264.396V263.28C227 259.811 229.941 257 233.57 257H306.431C310.059 257 313 259.811 313 263.28V264.396C313 271.909 306.627 278 298.768 278Z" fill="#99623B"/>
<path fill-rule="evenodd" clip-rule="evenodd" d="M259 260.499C259 264.089 252.731 267 244.999 267C237.267 267 231 264.089 231 260.499C231 256.91 237.267 254 244.999 254C252.731 254 259 256.91 259 260.499Z" fill="#992E31"/>
<path fill-rule="evenodd" clip-rule="evenodd" d="M283 260.499C283 264.089 276.732 267 269 267C261.269 267 255 264.089 255 260.499C255 256.91 261.269 254 269 254C276.732 254 283 256.91 283 260.499Z" fill="#992E31"/>
<path fill-rule="evenodd" clip-rule="evenodd" d="M306 260.499C306 264.089 299.732 267 291.999 267C284.268 267 278 264.089 278 260.499C278 256.91 284.268 254 291.999 254C299.732 254 306 256.91 306 260.499Z" fill="#992E31"/>
<path fill-rule="evenodd" clip-rule="evenodd" d="M230.691 252C230.691 252 224.451 255.595 225.039 258.163C225.627 260.728 226.217 259.83 228.335 260.858C230.455 261.884 230.455 264.067 233.869 264.067C237.283 264.067 237.4 261.884 240.227 261.629C243.052 261.371 242.228 263.682 246.701 264.067C251.175 264.452 249.644 262.398 252.588 262.142C255.531 261.884 256.001 262.494 258.945 264.115C261.888 265.736 263.771 262.655 266.479 262.398C269.187 262.142 268.481 263.816 272.012 264.583C275.543 265.35 274.601 264.195 278.722 262.912C282.842 261.629 282.842 263.924 286.963 264.829C291.083 265.736 290.848 262.655 294.262 262.655C297.676 262.655 297.684 264.9 300.855 264.997C304.026 265.095 302.227 262.784 306.25 262.655C310.273 262.527 310.979 264.067 312.628 262.269C314.275 260.473 309.92 252.643 309.92 252.643L230.691 252Z" fill="#52976C"/>
<path fill-rule="evenodd" clip-rule="evenodd" d="M304.799 260H234.201C229.672 260 226 256.318 226 251.775V251.225C226 246.682 229.672 243 234.201 243H304.799C309.328 243 313 246.682 313 251.225V251.775C313 256.318 309.328 260 304.799 260Z" fill="#EF8E91"/>
<path fill-rule="evenodd" clip-rule="evenodd" d="M230.691 239C230.691 239 224.451 242.596 225.039 245.162C225.627 247.729 226.217 246.831 228.335 247.858C230.455 248.885 230.455 251.066 233.869 251.066C237.283 251.066 237.4 248.885 240.227 248.628C243.052 248.372 242.228 250.681 246.701 251.066C251.175 251.451 249.644 249.397 252.588 249.142C255.531 248.885 256.001 249.493 258.945 251.115C261.888 252.736 263.771 249.655 266.479 249.397C269.187 249.142 268.481 250.816 272.012 251.583C275.543 252.35 274.601 251.195 278.722 249.911C282.842 248.628 282.842 250.923 286.963 251.83C291.083 252.736 290.848 249.655 294.262 249.655C297.676 249.655 297.684 251.899 300.855 251.997C304.026 252.094 302.227 249.783 306.25 249.655C310.273 249.527 310.979 251.066 312.628 249.27C314.275 247.472 309.92 239.643 309.92 239.643L230.691 239Z" fill="#EF9F50"/>
<path fill-rule="evenodd" clip-rule="evenodd" d="M269.5 207C253.038 207 227.719 212.876 225.069 233.839C224.456 238.689 228.034 243 232.643 243H306.356C310.966 243 314.544 238.689 313.932 233.839C311.281 212.876 285.961 207 269.5 207Z" fill="#99623B"/>
<path fill-rule="evenodd" clip-rule="evenodd" d="M257 216.001C257 216.552 256.328 217 255.5 217C254.671 217 254 216.552 254 216.001C254 215.448 254.671 215 255.5 215C256.328 215 257 215.448 257 216.001Z" fill="#EF9F50"/>
<path fill-rule="evenodd" clip-rule="evenodd" d="M265 215C265 215.553 264.328 216 263.5 216C262.671 216 262 215.553 262 215C262 214.447 262.671 214 263.5 214C264.328 214 265 214.447 265 215Z" fill="#EF9F50"/>
<path fill-rule="evenodd" clip-rule="evenodd" d="M278 214.999C278 215.552 277.329 216 276.501 216C275.672 216 275 215.552 275 214.999C275 214.448 275.672 214 276.501 214C277.329 214 278 214.448 278 214.999Z" fill="#EF9F50"/>
<path fill-rule="evenodd" clip-rule="evenodd" d="M281 221C281 221.553 280.328 222 279.5 222C278.672 222 278 221.553 278 221C278 220.448 278.672 220 279.5 220C280.328 220 281 220.448 281 221Z" fill="#EF9F50"/>
<path fill-rule="evenodd" clip-rule="evenodd" d="M261 221C261 221.553 260.328 222 259.5 222C258.672 222 258 221.553 258 221C258 220.448 258.672 220 259.5 220C260.328 220 261 220.448 261 221Z" fill="#EF9F50"/>
<path fill-rule="evenodd" clip-rule="evenodd" d="M287 215.999C287 216.552 286.329 217 285.501 217C284.672 217 284 216.552 284 215.999C284 215.448 284.672 215 285.501 215C286.329 215 287 215.448 287 215.999Z" fill="#EF9F50"/>
<path fill-rule="evenodd" clip-rule="evenodd" d="M271 218.999C271 219.552 270.328 220 269.499 220C268.672 220 268 219.552 268 218.999C268 218.448 268.672 218 269.499 218C270.328 218 271 218.448 271 218.999Z" fill="#EF9F50"/>
<path fill-rule="evenodd" clip-rule="evenodd" d="M272 212.001C272 212.552 271.328 213 270.5 213C269.672 213 269 212.552 269 212.001C269 211.448 269.672 211 270.5 211C271.328 211 272 211.448 272 212.001Z" fill="#EF9F50"/>
<path fill-rule="evenodd" clip-rule="evenodd" d="M61 150.155L59.2542 152L41.9944 150.155L28 119.845L29.7458 118H48.7525L61 150.155Z" fill="#5F94C2"/>
<path fill-rule="evenodd" clip-rule="evenodd" d="M60 152H40.5398L28 120H47.4591L60 152Z" fill="#022B57"/>
<path fill-rule="evenodd" clip-rule="evenodd" d="M32.8412 121.499C33.2118 122.327 32.9114 123 32.1713 123C31.43 123 30.5288 122.327 30.1593 121.499C29.7875 120.671 30.0891 120 30.8292 120C31.5705 120 32.4706 120.671 32.8412 121.499Z" fill="#FFFFFE"/>
<path fill-rule="evenodd" clip-rule="evenodd" d="M139.695 86L140 92.3442L137.043 96L134 87.1029L139.695 86Z" fill="#022B57"/>
<path fill-rule="evenodd" clip-rule="evenodd" d="M66.9529 260H184.892L180.073 206.116L219 205.696C219 205.696 214.291 177.781 211.256 161.935C208.221 146.089 199.536 133.915 187.607 127.619C175.677 121.322 148.365 111.247 148.365 111.247L145.121 106L125.03 110.617L123.998 114.341L95.4728 129.543C85.0822 135.081 77.4195 144.659 74.2841 156.033L59 211.468H76.685L66.9529 260Z" fill="#FBA808"/>
<path fill-rule="evenodd" clip-rule="evenodd" d="M83.8905 259.242C83.8905 261.727 76 378 76 378H134L127.876 259.242C127.876 259.242 83.8905 256.758 83.8905 259.242Z" fill="#152B4A"/>
<path fill-rule="evenodd" clip-rule="evenodd" d="M188.492 261.49L204 378H133.569L120 259L188.492 261.49Z" fill="#203859"/>
<path fill-rule="evenodd" clip-rule="evenodd" d="M165.979 163L90.4421 189.391L79 260H184L179.169 206.721H167.213L165.979 163Z" fill="#DB711A"/>
<path fill-rule="evenodd" clip-rule="evenodd" d="M115 92.3653C118.008 108.621 126.715 108.14 126.715 108.14L128.14 115.988L134.552 128L136.847 118.871L145 110.062L139.843 97.2944C144.42 98.1998 145.734 91.9337 142.705 90.3233C139.676 88.7129 138.252 91.8414 138.252 93.068L133.76 87L115 92.3653Z" fill="#EF8E91"/>
<path fill-rule="evenodd" clip-rule="evenodd" d="M138 100L124 107.59C125.012 107.871 125.67 107.838 125.67 107.838L127.07 115.423L129.011 119L138 100Z" fill="#CE6D70"/>
<path fill-rule="evenodd" clip-rule="evenodd" d="M138.587 93.4505C138.587 92.6993 138.771 92.2464 139.008 91.9807C139.245 91.7162 139.557 91.6063 139.909 91.6039C140.129 91.6039 140.36 91.651 140.574 91.7319C141.031 91.8877 141.42 92.6244 141.413 93.378C141.413 93.8406 141.275 94.2826 140.993 94.5821L141.417 95C141.83 94.5568 142 93.9589 142 93.378C141.992 92.4469 141.583 91.4916 140.778 91.1667C140.505 91.0616 140.209 91 139.909 91C139.436 90.9988 138.939 91.163 138.574 91.5725C138.21 91.9819 137.999 92.6027 138 93.4505H138.587Z" fill="#CE6D70"/>
<path fill-rule="evenodd" clip-rule="evenodd" d="M121 96.0872L122.315 102L123 101.913L121.683 96" fill="#CE6D70"/>
<path fill-rule="evenodd" clip-rule="evenodd" d="M117.498 96C117.689 95.6263 118.295 95.3869 118.884 95.3885C119.183 95.3885 119.466 95.4491 119.677 95.5664L120 95.2572C119.678 95.0785 119.28 95 118.884 95C118.117 95.0008 117.305 95.2953 117 95.8609L117.498 96Z" fill="#000105"/>
<path fill-rule="evenodd" clip-rule="evenodd" d="M123.596 96C123.647 95.6408 123.976 95.2705 124.485 94.995C124.989 94.7207 125.652 94.5499 126.277 94.551C126.795 94.551 127.282 94.6656 127.65 94.9069L128 94.4584C127.501 94.1333 126.889 94 126.277 94C125.535 94.0011 124.783 94.1939 124.178 94.5212C123.576 94.8496 123.097 95.3223 123 95.9218L123.596 96Z" fill="#000105"/>
<path fill-rule="evenodd" clip-rule="evenodd" d="M140 86.3501L104.32 97.9509C103.837 98.1081 103.316 97.8773 103.098 97.4125C102.85 96.882 103.09 96.2475 103.624 96.0236L113.443 91.8852C113.443 91.8852 110.52 79.538 120.423 76.1709C130.087 72.8831 138.121 76.5951 140 86.3501Z" fill="#FBA808"/>
<path fill-rule="evenodd" clip-rule="evenodd" d="M125.942 75.0005C123.867 74.9835 121.635 75.3651 119.303 76.1727C109.507 79.564 112.398 92 112.398 92C116.321 90.322 125.369 88.7682 129 89.6249L125.942 75.0005Z" fill="#DB711A"/>
<path fill-rule="evenodd" clip-rule="evenodd" d="M129 119.453L126.493 126L124 114.097L124.95 110.277L126.03 110L126.855 115.015L129 119.453Z" fill="#EF9F50"/>
<path fill-rule="evenodd" clip-rule="evenodd" d="M136 117.94L139.902 125L149 111.191L145.663 106L143.125 106.56L144.317 109.375L136 117.94Z" fill="#EF9F50"/>
<path fill-rule="evenodd" clip-rule="evenodd" d="M133.25 227H133.75V130H133.25V227Z" fill="#C65734"/>
<path fill-rule="evenodd" clip-rule="evenodd" d="M96.3835 156L92 187.932L92.6165 188L97 156.068" fill="#C65734"/>
<path fill-rule="evenodd" clip-rule="evenodd" d="M132 136.499C132 137.328 131.329 138 130.501 138C129.672 138 129 137.328 129 136.499C129 135.671 129.672 135 130.501 135C131.329 135 132 135.671 132 136.499Z" fill="#FFFFFE"/>
<path fill-rule="evenodd" clip-rule="evenodd" d="M132 153.5C132 154.329 131.329 155 130.501 155C129.672 155 129 154.329 129 153.5C129 152.672 129.672 152 130.501 152C131.329 152 132 152.672 132 153.5Z" fill="#FFFFFE"/>
<path fill-rule="evenodd" clip-rule="evenodd" d="M140.539 240.579L140.186 240.521L136.512 262.292H129.508L128.739 245.921L140.679 240.904L140.539 240.579L140.186 240.521L140.539 240.579L140.399 240.252L128 245.462L128.825 263H137.118L141 240L140.399 240.252L140.539 240.579Z" fill="#000105"/>
<path fill-rule="evenodd" clip-rule="evenodd" d="M45.2248 164L70 205.615V254.993C70 254.993 58.015 255.809 48.9746 240.302C39.9332 224.794 29 165.783 29 165.783L45.2248 164Z" fill="#EF8E91"/>
<path fill-rule="evenodd" clip-rule="evenodd" d="M45.0953 165L29 166.732C29 166.732 29.2269 167.928 29.6396 170.012L53 178L45.0953 165Z" fill="#CE6D70"/>
<path fill-rule="evenodd" clip-rule="evenodd" d="M159.974 177.991V174H139.024V177.991C137.84 178.473 137 179.655 137 181.044V201H162V181.044C162 179.655 161.159 178.473 159.974 177.991Z" fill="#5F94C2"/>
<path fill-rule="evenodd" clip-rule="evenodd" d="M145 197H162V182H145V197Z" fill="#25629C"/>
<path fill-rule="evenodd" clip-rule="evenodd" d="M160.467 174H138.533C137.686 174 137 174.672 137 175.5C137 176.328 137.686 177 138.533 177H160.467C161.313 177 162 176.328 162 175.5C162 174.672 161.313 174 160.467 174Z" fill="#FFFFFE"/>
<path fill-rule="evenodd" clip-rule="evenodd" d="M102 191.018C102 191.018 106.734 180.859 113.541 177.788C117.222 167.691 121.019 163.368 125.873 162.372C130.305 155.831 135.045 154.12 139.603 154.069C144.162 154.017 148.324 153.313 148.951 157.873C149.578 162.433 143.987 171.372 143.987 171.372C143.987 171.372 143.763 179.871 137.52 185.131C137.52 185.131 137.318 190.686 132.521 197L102 191.018Z" fill="#6C472B"/>
<path fill-rule="evenodd" clip-rule="evenodd" d="M111 182C111 182 123.175 182.141 130 186C119.267 185.625 111 182 111 182Z" fill="#EF9F50"/>
<path fill-rule="evenodd" clip-rule="evenodd" d="M119 173C119 173 130.719 172.938 138 176.98C130.27 177.326 119 173 119 173Z" fill="#EF9F50"/>
<path fill-rule="evenodd" clip-rule="evenodd" d="M127 165.104C127 165.104 135.321 164.154 141 168C135.767 168.03 127 165.104 127 165.104Z" fill="#EF9F50"/>
<path fill-rule="evenodd" clip-rule="evenodd" d="M134 159.628C134 159.628 141.102 157.726 146 160.542C142.513 161.962 134 159.628 134 159.628Z" fill="#EF9F50"/>
<path fill-rule="evenodd" clip-rule="evenodd" d="M85 195C85 195 87.8493 183.414 94.5593 178.689C96.276 167.406 99.427 162.071 104.483 159.937C107.823 152.162 112.593 149.313 117.542 148.222C122.491 147.131 126.86 145.454 128.577 150.027C130.292 154.601 126.236 165.119 126.236 165.119C126.236 165.119 127.92 173.962 122.317 180.822C122.317 180.822 123.357 186.615 119.569 194.237L85 195Z" fill="#99623B"/>
<path fill-rule="evenodd" clip-rule="evenodd" d="M94 184.125C94 184.125 106.898 181.594 115 184.125C103.571 186.094 94 184.125 94 184.125Z" fill="#EF9F50"/>
<path fill-rule="evenodd" clip-rule="evenodd" d="M99 171.123C99 171.123 110.783 168.596 119 171.123C111.297 173.096 99 171.123 99 171.123Z" fill="#EF9F50"/>
<path fill-rule="evenodd" clip-rule="evenodd" d="M105 162.807C105 162.807 113.983 159.322 121 162.031C115.24 163.581 105 162.807 105 162.807Z" fill="#EF9F50"/>
<path fill-rule="evenodd" clip-rule="evenodd" d="M111 155C111 155 118.257 152.162 124 153.247C120.523 155 111 155 111 155Z" fill="#EF9F50"/>
<path fill-rule="evenodd" clip-rule="evenodd" d="M55 197L60.4468 156H90.0498L97 197H55Z" fill="#6E4122"/>
<path fill-rule="evenodd" clip-rule="evenodd" d="M60.437 154H91.1239L92 162L60 160.684L60.437 154Z" fill="#6E4122"/>
<path fill-rule="evenodd" clip-rule="evenodd" d="M60.0976 160L66 197H55L60.0976 160Z" fill="#2D1D14"/>
<path fill-rule="evenodd" clip-rule="evenodd" d="M91 166L60 162.208L60.1638 161L90.3439 162.208L91 166Z" fill="#2D1D14"/>
<path fill-rule="evenodd" clip-rule="evenodd" d="M90 180H71.0391L70 172H88.9609L90 180Z" fill="#FFFFFE"/>
<path fill-rule="evenodd" clip-rule="evenodd" d="M53 260H165V190H53V260Z" fill="#F6CCCA"/>
<path d="M63.66 226.404C63.66 226.18 63.744 225.992 63.912 225.84C64.088 225.68 64.3 225.6 64.548 225.6H70.008C70.008 226.128 69.92 226.512 69.744 226.752C69.568 226.992 69.284 227.112 68.892 227.112H65.424V228.948H68.568C68.568 229.476 68.48 229.86 68.304 230.1C68.128 230.34 67.844 230.46 67.452 230.46H65.424V232.896C65.424 233.32 65.284 233.628 65.004 233.82C64.732 234.012 64.284 234.108 63.66 234.108V226.404ZM74.0993 234.108C73.4433 234.108 72.8393 233.98 72.2873 233.724C71.7353 233.46 71.2953 233.108 70.9673 232.668C70.6473 232.22 70.4873 231.74 70.4873 231.228V228.372C70.4873 227.86 70.6473 227.384 70.9673 226.944C71.2953 226.496 71.7353 226.144 72.2873 225.888C72.8393 225.624 73.4433 225.492 74.0993 225.492C74.7553 225.492 75.3593 225.624 75.9113 225.888C76.4633 226.144 76.8993 226.496 77.2193 226.944C77.5473 227.384 77.7113 227.86 77.7113 228.372V231.228C77.7113 231.74 77.5473 232.22 77.2193 232.668C76.8993 233.108 76.4633 233.46 75.9113 233.724C75.3593 233.98 74.7553 234.108 74.0993 234.108ZM74.0993 232.572C74.6433 232.572 75.0873 232.444 75.4313 232.188C75.7753 231.932 75.9473 231.6 75.9473 231.192V228.408C75.9473 228 75.7753 227.668 75.4313 227.412C75.0873 227.156 74.6433 227.028 74.0993 227.028C73.5553 227.028 73.1113 227.156 72.7673 227.412C72.4233 227.668 72.2513 228 72.2513 228.408V231.192C72.2513 231.6 72.4233 231.932 72.7673 232.188C73.1113 232.444 73.5553 232.572 74.0993 232.572ZM82.7018 234.108C82.0458 234.108 81.4418 233.98 80.8898 233.724C80.3378 233.46 79.8978 233.108 79.5698 232.668C79.2498 232.22 79.0898 231.74 79.0898 231.228V228.372C79.0898 227.86 79.2498 227.384 79.5698 226.944C79.8978 226.496 80.3378 226.144 80.8898 225.888C81.4418 225.624 82.0458 225.492 82.7018 225.492C83.3578 225.492 83.9618 225.624 84.5138 225.888C85.0658 226.144 85.5018 226.496 85.8218 226.944C86.1498 227.384 86.3138 227.86 86.3138 228.372V231.228C86.3138 231.74 86.1498 232.22 85.8218 232.668C85.5018 233.108 85.0658 233.46 84.5138 233.724C83.9618 233.98 83.3578 234.108 82.7018 234.108ZM82.7018 232.572C83.2458 232.572 83.6898 232.444 84.0338 232.188C84.3778 231.932 84.5498 231.6 84.5498 231.192V228.408C84.5498 228 84.3778 227.668 84.0338 227.412C83.6898 227.156 83.2458 227.028 82.7018 227.028C82.1578 227.028 81.7138 227.156 81.3698 227.412C81.0258 227.668 80.8538 228 80.8538 228.408V231.192C80.8538 231.6 81.0258 231.932 81.3698 232.188C81.7138 232.444 82.1578 232.572 82.7018 232.572ZM88.8203 234C88.5723 234 88.3603 233.924 88.1843 233.772C88.0163 233.62 87.9323 233.428 87.9323 233.196V226.404C87.9323 226.172 88.0163 225.98 88.1843 225.828C88.3603 225.676 88.5723 225.6 88.8203 225.6H91.4363C92.1563 225.6 92.7923 225.74 93.3443 226.02C93.8963 226.292 94.3243 226.68 94.6283 227.184C94.9403 227.688 95.0963 228.264 95.0963 228.912V230.664C95.0963 231.312 94.9403 231.892 94.6283 232.404C94.3243 232.908 93.8923 233.3 93.3323 233.58C92.7803 233.86 92.1483 234 91.4363 234H88.8203ZM91.3163 232.488C91.9803 232.488 92.4803 232.336 92.8163 232.032C93.1603 231.728 93.3323 231.28 93.3323 230.688V228.888C93.3323 228.304 93.1603 227.864 92.8163 227.568C92.4803 227.264 91.9803 227.112 91.3163 227.112H89.6963V232.488H91.3163ZM97.5986 234C97.3506 234 97.1386 233.924 96.9626 233.772C96.7946 233.62 96.7106 233.428 96.7106 233.196V226.404C96.7106 226.172 96.7946 225.98 96.9626 225.828C97.1386 225.676 97.3506 225.6 97.5986 225.6H100.215C100.935 225.6 101.571 225.74 102.123 226.02C102.675 226.292 103.103 226.68 103.407 227.184C103.719 227.688 103.875 228.264 103.875 228.912V230.664C103.875 231.312 103.719 231.892 103.407 232.404C103.103 232.908 102.671 233.3 102.111 233.58C101.559 233.86 100.927 234 100.215 234H97.5986ZM100.095 232.488C100.759 232.488 101.259 232.336 101.595 232.032C101.939 231.728 102.111 231.28 102.111 230.688V228.888C102.111 228.304 101.939 227.864 101.595 227.568C101.259 227.264 100.759 227.112 100.095 227.112H98.4746V232.488H100.095ZM108.861 234.108C108.205 234.108 107.601 233.98 107.049 233.724C106.497 233.46 106.057 233.108 105.729 232.668C105.409 232.22 105.249 231.74 105.249 231.228V228.372C105.249 227.86 105.409 227.384 105.729 226.944C106.057 226.496 106.497 226.144 107.049 225.888C107.601 225.624 108.205 225.492 108.861 225.492C109.517 225.492 110.121 225.624 110.673 225.888C111.225 226.144 111.661 226.496 111.981 226.944C112.309 227.384 112.473 227.86 112.473 228.372V231.228C112.473 231.74 112.309 232.22 111.981 232.668C111.661 233.108 111.225 233.46 110.673 233.724C110.121 233.98 109.517 234.108 108.861 234.108ZM108.861 232.572C109.405 232.572 109.849 232.444 110.193 232.188C110.537 231.932 110.709 231.6 110.709 231.192V228.408C110.709 228 110.537 227.668 110.193 227.412C109.849 227.156 109.405 227.028 108.861 227.028C108.317 227.028 107.873 227.156 107.529 227.412C107.185 227.668 107.013 228 107.013 228.408V231.192C107.013 231.6 107.185 231.932 107.529 232.188C107.873 232.444 108.317 232.572 108.861 232.572ZM117.463 234.108C116.807 234.108 116.203 233.98 115.651 233.724C115.099 233.46 114.659 233.108 114.331 232.668C114.011 232.22 113.851 231.74 113.851 231.228V228.372C113.851 227.86 114.011 227.384 114.331 226.944C114.659 226.496 115.099 226.144 115.651 225.888C116.203 225.624 116.807 225.492 117.463 225.492C118.119 225.492 118.723 225.624 119.275 225.888C119.827 226.144 120.263 226.496 120.583 226.944C120.911 227.384 121.075 227.86 121.075 228.372V231.228C121.075 231.74 120.911 232.22 120.583 232.668C120.263 233.108 119.827 233.46 119.275 233.724C118.723 233.98 118.119 234.108 117.463 234.108ZM117.463 232.572C118.007 232.572 118.451 232.444 118.795 232.188C119.139 231.932 119.311 231.6 119.311 231.192V228.408C119.311 228 119.139 227.668 118.795 227.412C118.451 227.156 118.007 227.028 117.463 227.028C116.919 227.028 116.475 227.156 116.131 227.412C115.787 227.668 115.615 228 115.615 228.408V231.192C115.615 231.6 115.787 231.932 116.131 232.188C116.475 232.444 116.919 232.572 117.463 232.572ZM122.694 226.404C122.694 226.172 122.778 225.98 122.946 225.828C123.122 225.676 123.334 225.6 123.582 225.6H126.738C127.634 225.6 128.322 225.832 128.802 226.296C129.29 226.752 129.534 227.404 129.534 228.252C129.534 228.724 129.438 229.12 129.246 229.44C129.062 229.76 128.774 230.012 128.382 230.196V230.244C129.078 230.556 129.426 231.144 129.426 232.008V232.836C129.426 233.252 129.274 233.568 128.97 233.784C128.674 234 128.238 234.108 127.662 234.108V232.068C127.662 231.668 127.582 231.376 127.422 231.192C127.27 231 127.034 230.904 126.714 230.904H124.434V232.836C124.434 233.252 124.286 233.568 123.99 233.784C123.694 234 123.262 234.108 122.694 234.108V226.404ZM126.642 229.404C127.01 229.404 127.29 229.304 127.482 229.104C127.674 228.904 127.77 228.616 127.77 228.24C127.77 227.848 127.678 227.56 127.494 227.376C127.318 227.192 127.034 227.1 126.642 227.1H124.434V229.404H126.642Z" fill="#152B4A"/>
<path fill-rule="evenodd" clip-rule="evenodd" d="M146 260H165V190H146V260Z" fill="#F0B1B2"/>
<path fill-rule="evenodd" clip-rule="evenodd" d="M134.009 214H41L52.9896 190H146L134.009 214Z" fill="#FFFFFE"/>
<path fill-rule="evenodd" clip-rule="evenodd" d="M172.334 204L173.43 226.22L129 245.132L129.782 262C129.782 262 168.11 262 185.945 262C203.779 262 214.707 250.23 216.986 238.147C219.267 226.064 216.986 204 216.986 204H172.334Z" fill="#EF8E91"/>
<path fill-rule="evenodd" clip-rule="evenodd" d="M79 262.754V247.803C79 246.402 80.4102 245.422 81.7329 245.916C90.425 249.159 100.004 246.571 100.004 246.571C98.5975 244.762 95.3369 243.686 93.2796 243.164C92.247 242.902 91.5657 241.937 91.6795 240.888C91.8057 239.742 92.8304 238.902 93.9904 239.009C96.4321 239.236 100.595 239.803 104.162 241.189C109.599 243.3 115.251 246.255 115.251 246.255L131.776 241.189L133 264.411H111.946C111.946 264.411 97.6354 270.929 81.7386 266.397C80.1088 265.933 79 264.431 79 262.754Z" fill="#00AD8F"/>
<path fill-rule="evenodd" clip-rule="evenodd" d="M79 250.719C79.0287 250.733 85.5399 253.999 95.2116 254C95.7967 254 96.3928 253.988 97 253.963L96.9747 253.176C96.3752 253.201 95.7879 253.212 95.2116 253.212C90.4457 253.212 86.4567 252.406 83.6612 251.601C82.2639 251.199 81.1653 250.796 80.4182 250.496C80.0446 250.345 79.7592 250.221 79.5675 250.133C79.3758 250.046 79.2821 249.999 79.2821 250L79 250.719Z" fill="#203859"/>
<path fill-rule="evenodd" clip-rule="evenodd" d="M79 255.72C79.0287 255.734 85.5388 258.999 95.2072 259C95.7934 259 96.3917 258.988 97 258.963L96.9747 258.177C96.3741 258.201 95.7846 258.213 95.2072 258.213C90.4424 258.213 86.4545 257.407 83.6601 256.602C82.2639 256.2 81.1653 255.797 80.4182 255.497C80.0446 255.346 79.7592 255.222 79.5675 255.135C79.3758 255.047 79.2821 255 79.2821 255L79 255.72Z" fill="#203859"/>
<path fill-rule="evenodd" clip-rule="evenodd" d="M79 259.719C79.0287 259.732 85.5388 262.999 95.2072 263C95.7934 263 96.3917 262.988 97 262.963L96.9747 262.175C96.3741 262.2 95.7846 262.213 95.2072 262.213C90.4424 262.213 86.4545 261.407 83.6601 260.602C82.2639 260.2 81.1653 259.797 80.4182 259.496C80.0446 259.346 79.7592 259.22 79.5675 259.135C79.3758 259.047 79.2821 259 79.2821 259L79 259.719Z" fill="#203859"/>
<path fill-rule="evenodd" clip-rule="evenodd" d="M172.263 227L183 222.663L182.739 222L172 226.339" fill="#BA3134"/>
<path fill-rule="evenodd" clip-rule="evenodd" d="M216.028 205H172L172.353 212.3C179.767 212.888 201.173 215.113 217 222C216.839 212.991 216.028 205 216.028 205Z" fill="#CE6D70"/>
<path fill-rule="evenodd" clip-rule="evenodd" d="M207.69 247.758C206.322 250.144 204.457 251.514 203.522 250.819C202.589 250.125 202.94 247.628 204.309 245.242C205.678 242.857 207.544 241.486 208.478 242.181C209.412 242.877 209.059 245.373 207.69 247.758Z" fill="#CE6D70"/>
<path fill-rule="evenodd" clip-rule="evenodd" d="M166 208H222V202H166V208Z" fill="#DB711A"/>
<path fill-rule="evenodd" clip-rule="evenodd" d="M103 115L93.1194 102.207C95.0478 98.8488 96.1705 94.9599 96.1705 90.7989C96.1705 78.2074 86.0579 68 73.5847 68C61.1116 68 51 78.2074 51 90.7989C51 103.391 61.1116 113.599 73.5847 113.599C79.3113 113.599 84.524 111.43 88.5034 107.885L103 115Z" fill="#EF8E91"/>
<path fill-rule="evenodd" clip-rule="evenodd" d="M72.9165 90.9309C71.395 92.4503 68.9181 92.4503 67.3966 90.9309C65.8751 89.4114 65.8751 86.9379 67.3966 85.4185C68.9193 83.8979 71.395 83.8979 72.9176 85.4185C74.4391 86.9379 74.4391 89.4114 72.9165 90.9309ZM74.5316 83.8067C72.0981 81.3754 68.1226 81.3982 65.7165 83.874C63.4976 86.1571 63.4188 89.9232 65.5452 92.293C67.3224 94.2729 70.0561 94.8201 72.3652 93.9412C73.2361 93.6095 74.22 93.8444 74.8786 94.5021L81.0513 100.665C81.4976 101.111 82.2201 101.112 82.6653 100.665C83.1116 100.221 83.1116 99.4992 82.6653 99.0535L76.4925 92.8903C75.8282 92.2269 75.6079 91.2375 75.9389 90.3598C76.7699 88.1587 76.3031 85.5758 74.5316 83.8067Z" fill="#FFFFFE"/>
<path fill-rule="evenodd" clip-rule="evenodd" d="M167.58 158.988C167.577 158.849 167.576 158.708 167.576 158.566C167.575 153.229 169.57 146.971 173.744 141.937C177.92 136.903 184.26 133.083 193 132.576L192.967 132C184.073 132.512 177.564 136.422 173.302 141.569C169.037 146.716 167.001 153.087 167 158.566C167 158.712 167.001 158.856 167.005 159L167.58 158.988Z" fill="#C65734"/>
<path fill-rule="evenodd" clip-rule="evenodd" d="M138.102 92C138.102 92 127.733 101.138 118 101.643C118 101.643 120.443 110.207 127.319 109.996C134.194 109.786 137.147 103.305 140 97.7998L139.199 97.7121C139.199 97.7121 136.893 102.673 134.551 99.8814C132.208 97.0883 137.664 93.541 137.664 93.541L138.102 92Z" fill="#B0D7E6"/>
<path fill-rule="evenodd" clip-rule="evenodd" d="M48.2192 167H27L28.1563 148.749L28.051 133.242L30.7815 125.464L32.6729 130.184L39.1816 124.045C39.8741 123.392 40.7458 122.968 41.687 122.827C43.6018 122.543 46.9408 122.075 48.7447 122.002C51.3699 121.897 51.4753 125.569 49.2691 125.778C47.6948 125.928 45.4237 126.184 44.2528 126.32C43.7609 126.376 43.3161 126.618 43.0001 127L38.3446 132.596L45.9077 129.03L50.9912 128.881C52.1778 128.845 53.2142 129.677 53.4361 130.842L54.9644 138.228C55.1739 139.239 54.4344 140.2 53.4025 140.257L49.6893 140.463L47.1144 142.38C45.9424 143.253 45.1828 144.563 44.9968 146.012C44.7368 148.042 44.0489 150.955 42.2315 152.316L48.2192 167Z" fill="#00AD8F"/>
<path fill-rule="evenodd" clip-rule="evenodd" d="M32.5021 130L29 134.583L29.4979 135L33 130.417" fill="#203859"/>
<path fill-rule="evenodd" clip-rule="evenodd" d="M39.2982 137L48.2427 132.929L54 132.671L53.968 132L48.0716 132.265L39 136.393L39.2982 137Z" fill="#203859"/>
<path fill-rule="evenodd" clip-rule="evenodd" d="M41.3415 141L48.9519 137.112L55 136.685L54.9463 136L48.7463 136.438L41 140.395L41.3415 141Z" fill="#203859"/>
</g>
<defs>
<clipPath id="clip0_0_5395">
<rect width="349" height="378" fill="white"/>
</clipPath>
</defs>
</svg>
