<svg width="169" height="22" viewBox="0 0 169 22" fill="none" xmlns="http://www.w3.org/2000/svg">
<path d="M0.184 1.176H13.484V5.208H4.552V9.24H12.812V13.272H4.552V21H0.184V1.176ZM15.5497 11.088C15.5497 9.50133 15.811 8.064 16.3337 6.776C16.875 5.488 17.6217 4.396 18.5737 3.5C19.5257 2.58533 20.655 1.88533 21.9617 1.4C23.2683 0.914666 24.6963 0.672 26.2457 0.672C27.795 0.672 29.223 0.914666 30.5297 1.4C31.8363 1.88533 32.9657 2.58533 33.9177 3.5C34.8697 4.396 35.607 5.488 36.1297 6.776C36.671 8.064 36.9417 9.50133 36.9417 11.088C36.9417 12.6747 36.671 14.112 36.1297 15.4C35.607 16.688 34.8697 17.7893 33.9177 18.704C32.9657 19.6 31.8363 20.2907 30.5297 20.776C29.223 21.2613 27.795 21.504 26.2457 21.504C24.6963 21.504 23.2683 21.2613 21.9617 20.776C20.655 20.2907 19.5257 19.6 18.5737 18.704C17.6217 17.7893 16.875 16.688 16.3337 15.4C15.811 14.112 15.5497 12.6747 15.5497 11.088ZM20.0857 11.088C20.0857 12.0213 20.2257 12.88 20.5057 13.664C20.8043 14.4293 21.2243 15.1013 21.7657 15.68C22.307 16.24 22.951 16.6787 23.6977 16.996C24.463 17.3133 25.3123 17.472 26.2457 17.472C27.179 17.472 28.019 17.3133 28.7657 16.996C29.531 16.6787 30.1843 16.24 30.7257 15.68C31.267 15.1013 31.6777 14.4293 31.9577 13.664C32.2563 12.88 32.4057 12.0213 32.4057 11.088C32.4057 10.1733 32.2563 9.324 31.9577 8.54C31.6777 7.756 31.267 7.084 30.7257 6.524C30.1843 5.94533 29.531 5.49733 28.7657 5.18C28.019 4.86267 27.179 4.704 26.2457 4.704C25.3123 4.704 24.463 4.86267 23.6977 5.18C22.951 5.49733 22.307 5.94533 21.7657 6.524C21.2243 7.084 20.8043 7.756 20.5057 8.54C20.2257 9.324 20.0857 10.1733 20.0857 11.088ZM38.8465 11.088C38.8465 9.50133 39.1079 8.064 39.6305 6.776C40.1719 5.488 40.9185 4.396 41.8705 3.5C42.8225 2.58533 43.9519 1.88533 45.2585 1.4C46.5652 0.914666 47.9932 0.672 49.5425 0.672C51.0919 0.672 52.5199 0.914666 53.8265 1.4C55.1332 1.88533 56.2625 2.58533 57.2145 3.5C58.1665 4.396 58.9039 5.488 59.4265 6.776C59.9679 8.064 60.2385 9.50133 60.2385 11.088C60.2385 12.6747 59.9679 14.112 59.4265 15.4C58.9039 16.688 58.1665 17.7893 57.2145 18.704C56.2625 19.6 55.1332 20.2907 53.8265 20.776C52.5199 21.2613 51.0919 21.504 49.5425 21.504C47.9932 21.504 46.5652 21.2613 45.2585 20.776C43.9519 20.2907 42.8225 19.6 41.8705 18.704C40.9185 17.7893 40.1719 16.688 39.6305 15.4C39.1079 14.112 38.8465 12.6747 38.8465 11.088ZM43.3825 11.088C43.3825 12.0213 43.5225 12.88 43.8025 13.664C44.1012 14.4293 44.5212 15.1013 45.0625 15.68C45.6039 16.24 46.2479 16.6787 46.9945 16.996C47.7599 17.3133 48.6092 17.472 49.5425 17.472C50.4759 17.472 51.3159 17.3133 52.0625 16.996C52.8279 16.6787 53.4812 16.24 54.0225 15.68C54.5639 15.1013 54.9745 14.4293 55.2545 13.664C55.5532 12.88 55.7025 12.0213 55.7025 11.088C55.7025 10.1733 55.5532 9.324 55.2545 8.54C54.9745 7.756 54.5639 7.084 54.0225 6.524C53.4812 5.94533 52.8279 5.49733 52.0625 5.18C51.3159 4.86267 50.4759 4.704 49.5425 4.704C48.6092 4.704 47.7599 4.86267 46.9945 5.18C46.2479 5.49733 45.6039 5.94533 45.0625 6.524C44.5212 7.084 44.1012 7.756 43.8025 8.54C43.5225 9.324 43.3825 10.1733 43.3825 11.088ZM63.2074 1.176H69.7594C71.3461 1.176 72.8487 1.35333 74.2674 1.708C75.7047 2.06267 76.9554 2.64133 78.0194 3.444C79.0834 4.228 79.9234 5.25467 80.5394 6.524C81.1741 7.79333 81.4914 9.33333 81.4914 11.144C81.4914 12.7493 81.1834 14.168 80.5674 15.4C79.9701 16.6133 79.1581 17.64 78.1314 18.48C77.1047 19.3013 75.9194 19.9267 74.5754 20.356C73.2314 20.7853 71.8221 21 70.3474 21H63.2074V1.176ZM67.5754 16.968H69.8434C70.8514 16.968 71.7847 16.8653 72.6434 16.66C73.5207 16.4547 74.2767 16.1187 74.9114 15.652C75.5461 15.1667 76.0407 14.5413 76.3954 13.776C76.7687 12.992 76.9554 12.04 76.9554 10.92C76.9554 9.94933 76.7687 9.10933 76.3954 8.4C76.0407 7.672 75.5554 7.07467 74.9394 6.608C74.3234 6.14133 73.5954 5.796 72.7554 5.572C71.9341 5.32933 71.0661 5.208 70.1514 5.208H67.5754V16.968Z" fill="white"/>
<path d="M84.4535 1.176H91.0055C92.5922 1.176 94.0948 1.35333 95.5135 1.708C96.9508 2.06267 98.2015 2.64133 99.2655 3.444C100.33 4.228 101.17 5.25467 101.786 6.524C102.42 7.79333 102.738 9.33333 102.738 11.144C102.738 12.7493 102.43 14.168 101.814 15.4C101.216 16.6133 100.404 17.64 99.3775 18.48C98.3508 19.3013 97.1655 19.9267 95.8215 20.356C94.4775 20.7853 93.0682 21 91.5935 21H84.4535V1.176ZM88.8215 16.968H91.0895C92.0975 16.968 93.0308 16.8653 93.8895 16.66C94.7668 16.4547 95.5228 16.1187 96.1575 15.652C96.7922 15.1667 97.2868 14.5413 97.6415 13.776C98.0148 12.992 98.2015 12.04 98.2015 10.92C98.2015 9.94933 98.0148 9.10933 97.6415 8.4C97.2868 7.672 96.8015 7.07467 96.1855 6.608C95.5695 6.14133 94.8415 5.796 94.0015 5.572C93.1802 5.32933 92.3122 5.208 91.3975 5.208H88.8215V16.968ZM104.636 11.088C104.636 9.50133 104.897 8.064 105.42 6.776C105.961 5.488 106.708 4.396 107.66 3.5C108.612 2.58533 109.741 1.88533 111.048 1.4C112.354 0.914666 113.782 0.672 115.332 0.672C116.881 0.672 118.309 0.914666 119.616 1.4C120.922 1.88533 122.052 2.58533 123.004 3.5C123.956 4.396 124.693 5.488 125.216 6.776C125.757 8.064 126.028 9.50133 126.028 11.088C126.028 12.6747 125.757 14.112 125.216 15.4C124.693 16.688 123.956 17.7893 123.004 18.704C122.052 19.6 120.922 20.2907 119.616 20.776C118.309 21.2613 116.881 21.504 115.332 21.504C113.782 21.504 112.354 21.2613 111.048 20.776C109.741 20.2907 108.612 19.6 107.66 18.704C106.708 17.7893 105.961 16.688 105.42 15.4C104.897 14.112 104.636 12.6747 104.636 11.088ZM109.172 11.088C109.172 12.0213 109.312 12.88 109.592 13.664C109.89 14.4293 110.31 15.1013 110.852 15.68C111.393 16.24 112.037 16.6787 112.784 16.996C113.549 17.3133 114.398 17.472 115.332 17.472C116.265 17.472 117.105 17.3133 117.852 16.996C118.617 16.6787 119.27 16.24 119.812 15.68C120.353 15.1013 120.764 14.4293 121.044 13.664C121.342 12.88 121.492 12.0213 121.492 11.088C121.492 10.1733 121.342 9.324 121.044 8.54C120.764 7.756 120.353 7.084 119.812 6.524C119.27 5.94533 118.617 5.49733 117.852 5.18C117.105 4.86267 116.265 4.704 115.332 4.704C114.398 4.704 113.549 4.86267 112.784 5.18C112.037 5.49733 111.393 5.94533 110.852 6.524C110.31 7.084 109.89 7.756 109.592 8.54C109.312 9.324 109.172 10.1733 109.172 11.088ZM127.932 11.088C127.932 9.50133 128.194 8.064 128.716 6.776C129.258 5.488 130.004 4.396 130.956 3.5C131.908 2.58533 133.038 1.88533 134.344 1.4C135.651 0.914666 137.079 0.672 138.628 0.672C140.178 0.672 141.606 0.914666 142.912 1.4C144.219 1.88533 145.348 2.58533 146.3 3.5C147.252 4.396 147.99 5.488 148.512 6.776C149.054 8.064 149.324 9.50133 149.324 11.088C149.324 12.6747 149.054 14.112 148.512 15.4C147.99 16.688 147.252 17.7893 146.3 18.704C145.348 19.6 144.219 20.2907 142.912 20.776C141.606 21.2613 140.178 21.504 138.628 21.504C137.079 21.504 135.651 21.2613 134.344 20.776C133.038 20.2907 131.908 19.6 130.956 18.704C130.004 17.7893 129.258 16.688 128.716 15.4C128.194 14.112 127.932 12.6747 127.932 11.088ZM132.468 11.088C132.468 12.0213 132.608 12.88 132.888 13.664C133.187 14.4293 133.607 15.1013 134.148 15.68C134.69 16.24 135.334 16.6787 136.08 16.996C136.846 17.3133 137.695 17.472 138.628 17.472C139.562 17.472 140.402 17.3133 141.148 16.996C141.914 16.6787 142.567 16.24 143.108 15.68C143.65 15.1013 144.06 14.4293 144.34 13.664C144.639 12.88 144.788 12.0213 144.788 11.088C144.788 10.1733 144.639 9.324 144.34 8.54C144.06 7.756 143.65 7.084 143.108 6.524C142.567 5.94533 141.914 5.49733 141.148 5.18C140.402 4.86267 139.562 4.704 138.628 4.704C137.695 4.704 136.846 4.86267 136.08 5.18C135.334 5.49733 134.69 5.94533 134.148 6.524C133.607 7.084 133.187 7.756 132.888 8.54C132.608 9.324 132.468 10.1733 132.468 11.088ZM152.293 1.176H159.965C160.973 1.176 161.925 1.27867 162.821 1.484C163.736 1.67067 164.529 1.99733 165.201 2.464C165.892 2.912 166.433 3.528 166.825 4.312C167.236 5.07733 167.441 6.03867 167.441 7.196C167.441 8.596 167.077 9.79067 166.349 10.78C165.621 11.7507 164.557 12.3667 163.157 12.628L168.197 21H162.961L158.817 13.076H156.661V21H152.293V1.176ZM156.661 9.38H159.237C159.629 9.38 160.04 9.37067 160.469 9.352C160.917 9.31467 161.319 9.23067 161.673 9.1C162.028 8.95067 162.317 8.72667 162.541 8.428C162.784 8.12933 162.905 7.70933 162.905 7.168C162.905 6.664 162.803 6.26267 162.597 5.964C162.392 5.66533 162.131 5.44133 161.813 5.292C161.496 5.124 161.132 5.012 160.721 4.956C160.311 4.9 159.909 4.872 159.517 4.872H156.661V9.38Z" fill="#FBA808"/>
</svg>
