<svg width="9" height="10" viewBox="0 0 9 10" fill="none" xmlns="http://www.w3.org/2000/svg">
<path fill-rule="evenodd" clip-rule="evenodd" d="M0 4.11765C0 1.82353 1.82353 0 4.11765 0C6.41177 0 8.23529 1.82353 8.17647 4.11765C8.17647 5.23529 7.76471 6.29412 6.94118 7.05882C6.94118 7.10281 5.59246 8.29815 4.8876 8.92284C4.6499 9.13351 4.48542 9.27928 4.47059 9.29412C4.29412 9.47059 3.94118 9.47059 3.70588 9.29412C3.67647 9.26471 3.07353 8.72059 2.47059 8.17647C1.86765 7.63235 1.26471 7.08824 1.23529 7.05882C0.411765 6.29412 0 5.23529 0 4.11765ZM2.94118 4.11765C2.94118 4.76471 3.47059 5.29412 4.11765 5.29412C4.76471 5.29412 5.29412 4.76471 5.29412 4.11765C5.29412 3.47059 4.76471 2.94118 4.11765 2.94118C3.47059 2.94118 2.94118 3.47059 2.94118 4.11765Z" fill="white"/>
</svg>
